# xmcd
#
# Track frame offsets: 
#        150
#        12543
#        26468
#        30446
#        34568
#        40056
#        67278
#        77025
#        83440
#        90334
#        113352
#        118247
#        124065
#        128905
#        152416
#        180572
#        191760
#        202000
#        205883
#        210726
#        238218
#        251824
#
# Disc length: 3441 seconds
#
# Revision: 4
# Processed by: cddbd v1.5.2PL0 Copyright (c) Steve Scherf et al.
# Submitted via: ExactAudioCopy v0.99pb5
#
DISCID=260d6f16
DTITLE=Abdullah Ibrahim - Senzo
DYEAR=2008
DGENRE=Jazz
TTITLE0=Ocean and The River
TTITLE1=In The Evening
TTITLE2=Blues For Bea
TTITLE3=Prelude 'For Coltrane'
TTITLE4=Aspen
TTITLE5=Blues For A Hip King
TTITLE6=Third Line Samba
TTITLE7=Tookah
TTITLE8=Pula
TTITLE9=For Coltrane
TTITLE10=Dust
TTITLE11=Corridors Radiant
TTITLE12=Jabulani
TTITLE13=Dust (Reprise)
TTITLE14=Nisa
TTITLE15='Senzo' - Contours And Time
TTITLE16=Meditation - Mummy
TTITLE17=Banyana, Children Of Africa
TTITLE18=Mamma
TTITLE19=Blue Bolero
TTITLE20=In A Sentimental Mood
TTITLE21=Ocean and The River
EXTD=YEAR: 2008
EXTT0=
EXTT1=
EXTT2=
EXTT3=
EXTT4=
EXTT5=
EXTT6=
EXTT7=
EXTT8=
EXTT9=
EXTT10=
EXTT11=
EXTT12=
EXTT13=
EXTT14=
EXTT15=
EXTT16=
EXTT17=
EXTT18=
EXTT19=
EXTT20=
EXTT21=
PLAYORDER=
